<svg t="1679218201692" class="icon" viewBox="0 0 1024 1024" version="1.1" xmlns="http://www.w3.org/2000/svg" p-id="5284" width="200" height="200"><path d="M294.4 273.066667l-21.333333 34.133333 234.666666 136.533333 51.2 29.866667-59.733333 17.066667-268.8 72.533333-12.8-42.666667-42.666667 12.8 21.333334 81.066667 618.666666-166.4-12.8-42.666667-187.733333 51.2-320-183.466666zM256 251.733333l21.333333-38.4 345.6 200.533334 217.6-59.733334 12.8 42.666667 12.8 42.666667 12.8 42.666666L170.666667 665.6l-12.8-42.666667-29.866667-119.466666 42.666667-12.8 42.666666-12.8 42.666667-12.8 12.8 42.666666 187.733333-51.2L213.333333 324.266667l21.333334-38.4 21.333333-34.133334z m618.666667 541.866667h-725.333334v-42.666667h725.333334v42.666667z" fill="#444444" p-id="5285"></path></svg>